# xmcd
#
# Track frame offsets:
#   150
#   21533
#   39963
#   57740
#   76826
#   98376
#   120935
#   141029
#   159715
#   182088
#   202635
#   219149
#
# Disc length: 3172 seconds
#
# Revision: 1
# Processed by: cddbd v1.5.2PL0 Copyright (c) Steve Scherf et al.
# Submitted via: Media_Universe 3.0
#
DISCID=900c620c
DTITLE=Janet Jackson - Janet Jackson - Icon - Number Ones
DYEAR=2010
DGENRE=R&B
TTITLE0=Janet Jackson - What Have You Done For Me Lately
TTITLE1=Janet Jackson - Nasty
TTITLE2=Janet Jackson - When I Think Of You
TTITLE3=Janet Jackson - Miss You Much
TTITLE4=Janet Jackson - Escapade
TTITLE5=Janet Jackson - Alright
TTITLE6=Janet Jackson - That's The Way Love Goes
TTITLE7=Janet Jackson - Together Again
TTITLE8=Janet Jackson - Doesn't Really Matter
TTITLE9=Janet Jackson - All For You
TTITLE10=Janet Jackson - Make Me
TTITLE11=Janet Jackson - Nothing
EXTD=
EXTT0=
EXTT1=
EXTT2=
EXTT3=
EXTT4=
EXTT5=
EXTT6=
EXTT7=
EXTT8=
EXTT9=
EXTT10=
EXTT11=
PLAYORDER=
